<?xml version="1.0" encoding="UTF-8"?>
<svg id="Capa_1" data-name="Capa 1" xmlns="http://www.w3.org/2000/svg" viewBox="0 0 100 100">
  <defs>
    <style>
      .cls-1 {
        fill: #fff;
      }

      .cls-2 {
        fill: #1ecad3;
      }
    </style>
  </defs>
  <circle class="cls-1" cx="50" cy="50" r="20.92"/>
  <path class="cls-2" d="M81.76,55.5c-2.61,15.18-15.84,26.74-31.77,26.74s-29.44-11.8-31.85-27.23L1.07,59.86c4.58,22.84,24.75,40.05,48.93,40.05s44.33-17.18,48.93-40l-17.16-4.41ZM50,.09C25.83,.09,5.67,17.27,1.08,40.09l17.16,4.41c2.61-15.18,15.84-26.74,31.77-26.74s29.44,11.8,31.85,27.23l17.09-4.85C94.36,17.3,74.19,.09,50,.09Z"/>
  <g>
    <path class="cls-1" d="M24.07,20.89c-.42-.37-.85-.6-1.28-.69-.43-.09-.85-.08-1.26,.04-.41,.11-.81,.28-1.19,.5-.38,.22-.75,.47-1.09,.73-.34,.27-.66,.51-.94,.73-.29,.22-.54,.37-.76,.46-.22,.09-.4,.08-.54-.05-.09-.08-.15-.19-.17-.32-.02-.13,.01-.3,.1-.49,.09-.19,.25-.42,.48-.69,.31-.35,.68-.67,1.11-.96,.43-.29,.92-.54,1.47-.77l-1.26-2.55c-.61,.22-1.21,.54-1.79,.97-.58,.43-1.11,.92-1.59,1.47-.73,.83-1.21,1.64-1.46,2.41-.24,.77-.28,1.48-.11,2.12,.17,.64,.5,1.18,1,1.62,.43,.38,.86,.61,1.29,.7,.43,.09,.85,.08,1.26-.03,.41-.11,.81-.28,1.2-.5,.39-.23,.75-.47,1.09-.73,.34-.26,.66-.5,.95-.71,.29-.22,.55-.37,.78-.45,.23-.09,.41-.07,.56,.06,.09,.08,.14,.18,.15,.31,0,.13-.04,.28-.14,.46-.1,.18-.26,.4-.49,.66-.39,.45-.86,.85-1.41,1.2-.55,.36-1.1,.63-1.67,.82l1.11,2.39-10.76-.1-1.46,3.25,7.89,8.69,1.51-3.36-1.42-1.42,1.67-3.73,2,.11,1.53-3.42h-.29c.44-.2,.9-.47,1.39-.81,.71-.5,1.36-1.09,1.95-1.76,.73-.84,1.22-1.65,1.45-2.42,.23-.77,.27-1.48,.1-2.12-.17-.64-.5-1.18-.99-1.61Zm-10.8,13.79l-2.05-2.06,2.9,.16-.85,1.9Z"/>
    <polygon class="cls-1" points="28.46 18.65 27.68 17.47 31.48 14.97 30.04 12.79 26.24 15.29 25.55 14.24 29.87 11.39 28.37 9.11 21.07 13.92 26.98 22.9 34.45 17.98 32.95 15.69 28.46 18.65"/>
    <path class="cls-1" d="M40.24,10.15l.78,2.61s-.07,.06-.1,.08c-.33,.24-.7,.43-1.09,.54-.37,.11-.73,.15-1.06,.12-.34-.03-.65-.13-.93-.29-.28-.16-.53-.38-.75-.67-.21-.28-.38-.62-.49-1-.12-.4-.17-.78-.15-1.13,.02-.35,.11-.67,.26-.96,.15-.29,.36-.54,.63-.75,.27-.21,.6-.37,.98-.49,.46-.14,.91-.17,1.34-.09,.44,.08,.87,.25,1.31,.53l1.63-2.62c-.71-.48-1.52-.77-2.42-.88-.9-.1-1.86,0-2.88,.3-.85,.26-1.6,.62-2.23,1.09-.63,.47-1.14,1.03-1.51,1.67-.38,.64-.61,1.33-.69,2.07-.09,.74-.01,1.51,.23,2.31,.24,.79,.6,1.48,1.08,2.05,.48,.57,1.05,1.02,1.71,1.35,.66,.33,1.38,.51,2.16,.56,.78,.05,1.59-.05,2.42-.3,.76-.23,1.5-.57,2.24-1.04,.74-.47,1.36-1.01,1.86-1.62l-1.31-4.36-3.02,.91Z"/>
    <path class="cls-1" d="M52.62,9.8c-.02,.82-.18,1.4-.48,1.73-.3,.34-.71,.5-1.22,.49-.5-.01-.9-.19-1.19-.54-.29-.35-.42-.93-.4-1.75l.14-5.81-3.62-.09-.14,5.91c-.04,1.61,.39,2.87,1.29,3.78,.9,.91,2.17,1.39,3.82,1.43,1.65,.04,2.94-.37,3.89-1.24,.94-.87,1.43-2.11,1.47-3.71l.14-5.91-3.56-.09-.14,5.81Z"/>
    <path class="cls-1" d="M76.36,12.18l-9.84,5.53-.86-3.15c.67-.09,1.26-.33,1.76-.71,.57-.44,1-1.05,1.27-1.83,.27-.78,.32-1.53,.14-2.24-.18-.71-.56-1.33-1.15-1.88-.59-.55-1.35-.99-2.3-1.31l-4.89-1.69-3.51,10.16,3.43,1.18,.88-2.56,.93,.32,.84,3.15,3.66,1.26-.02-.07,2.38,1.8,1.7-1.06,3.26,2.47-.56,1.93,2.99,2.26,2.73-11.41-2.84-2.15Zm-11.18-2.35c.15,.29,.17,.62,.04,.99-.13,.37-.34,.62-.64,.75-.3,.13-.69,.12-1.16-.04l-1.25-.43,.82-2.38,1.25,.43c.47,.16,.79,.39,.94,.68Zm7.96,7.77l2.46-1.53-.8,2.79-1.66-1.26Z"/>
    <polygon class="cls-1" points="87.61 28.09 89.86 26.41 83.92 18.45 81.67 20.13 83.55 22.66 77.19 27.41 79.36 30.31 85.72 25.56 87.61 28.09"/>
    <polygon class="cls-1" points="91.97 38.34 94.51 37.34 91.32 29.2 81.31 33.14 84.58 41.46 87.12 40.46 85.16 35.45 86.47 34.94 88.13 39.17 90.56 38.21 88.9 33.98 90.07 33.52 91.97 38.34"/>
  </g>
  <g>
    <path class="cls-1" d="M16.64,63.33l-12.02,.24,1.58,3.43,2.05-.13,1.75,3.8-1.43,1.47,1.61,3.49,7.99-8.98-1.53-3.31Zm-5.53,3.35l2.97-.19-2.07,2.13-.89-1.94Z"/>
    <path class="cls-1" d="M21.43,81.12c.15-.42,.19-.85,.14-1.28-.06-.43-.17-.86-.34-1.28-.17-.42-.37-.82-.59-1.21-.22-.38-.43-.74-.61-1.06-.18-.32-.3-.6-.37-.84-.06-.24-.02-.42,.12-.54,.09-.08,.21-.12,.35-.13,.14,0,.3,.06,.48,.17,.19,.12,.4,.31,.63,.58,.32,.36,.59,.78,.82,1.25,.23,.47,.42,1,.58,1.59l2.76-.93c-.13-.65-.38-1.3-.74-1.95s-.78-1.25-1.27-1.81c-.74-.85-1.49-1.46-2.25-1.81-.75-.35-1.47-.49-2.14-.41-.67,.08-1.27,.34-1.78,.79-.44,.39-.74,.79-.89,1.22s-.2,.85-.14,1.28,.17,.86,.35,1.28c.18,.42,.37,.83,.59,1.21,.22,.38,.41,.74,.59,1.06,.18,.32,.3,.61,.35,.85,.06,.24,.01,.43-.14,.56-.09,.08-.21,.12-.34,.11-.13-.01-.28-.08-.45-.2-.17-.12-.37-.32-.61-.59-.4-.46-.74-.99-1.03-1.6-.29-.61-.49-1.21-.6-1.8l-2.82,.88c.11,.64,.37,1.35,.78,2.14,.41,.79,.91,1.53,1.52,2.22,.75,.86,1.5,1.46,2.26,1.81,.75,.34,1.47,.48,2.14,.4,.67-.08,1.26-.34,1.77-.78,.43-.38,.73-.78,.87-1.2Z"/>
    <polygon class="cls-1" points="27.8 81.69 32.21 84.65 33.76 82.32 26.33 77.34 20.2 86.48 27.8 91.58 29.36 89.25 24.79 86.19 25.59 84.99 29.46 87.58 30.95 85.36 27.08 82.77 27.8 81.69"/>
    <path class="cls-1" d="M36.2,87.83c.22-.28,.48-.5,.77-.66,.29-.16,.62-.25,.97-.27s.72,.03,1.11,.16c.47,.15,.87,.38,1.19,.7,.32,.32,.59,.72,.8,1.2l2.9-1.27c-.32-.82-.83-1.53-1.54-2.14-.7-.61-1.57-1.08-2.61-1.41-.87-.28-1.71-.4-2.52-.37-.81,.03-1.56,.21-2.24,.53-.69,.32-1.28,.77-1.78,1.35-.5,.58-.88,1.27-1.14,2.08-.26,.81-.35,1.6-.27,2.36,.08,.76,.3,1.47,.67,2.13,.37,.66,.87,1.23,1.5,1.72,.63,.49,1.37,.87,2.22,1.15,.77,.25,1.6,.38,2.49,.42,.89,.03,1.73-.07,2.5-.29l1.42-4.44-3.07-.98-.85,2.66s-.09,0-.14,.01c-.42,.01-.83-.04-1.23-.17-.38-.12-.7-.29-.97-.51-.27-.22-.47-.48-.62-.78-.15-.3-.23-.63-.24-.99-.02-.36,.04-.74,.16-1.13,.13-.41,.31-.76,.53-1.04Z"/>
    <path class="cls-1" d="M51.55,91.84c0,.84-.16,1.43-.46,1.78-.3,.35-.71,.52-1.24,.52-.51,0-.92-.18-1.22-.53-.3-.35-.45-.95-.45-1.79l.03-5.95-3.71-.02-.03,6.06c0,1.65,.46,2.93,1.4,3.85,.94,.92,2.25,1.38,3.94,1.39,1.69,0,3.01-.44,3.96-1.35,.95-.91,1.43-2.18,1.44-3.83l.03-6.06-3.65-.02-.03,5.95Z"/>
    <path class="cls-1" d="M66.86,89.01c.21-.71,.19-1.47-.06-2.28-.25-.81-.66-1.46-1.23-1.93-.57-.48-1.27-.77-2.08-.87-.82-.1-1.71,0-2.7,.3l-5.07,1.55,3.23,10.53,3.55-1.09-.81-2.65,.97-.3,2.6,2.1,3.79-1.16-3.2-2.56c.5-.48,.84-1.03,1.02-1.65Zm-5.46-1.97c.49-.15,.89-.15,1.19,0,.3,.15,.51,.41,.63,.79,.12,.38,.09,.72-.08,1.01-.17,.29-.5,.51-.99,.66l-1.29,.4-.76-2.47,1.29-.4Z"/>
    <path class="cls-1" d="M68.78,80.64l2.23,11.81,3.12-2.13-.47-2,3.46-2.36,1.69,1.17,3.17-2.16-10.18-6.38-3.01,2.06Zm4.22,4.89l-.68-2.89,2.44,1.69-1.76,1.2Z"/>
    <polygon class="cls-1" points="94.5 65.55 91.96 64.36 89.63 69.35 88.32 68.74 90.29 64.52 87.87 63.39 85.9 67.61 84.73 67.06 86.97 62.26 84.43 61.07 80.65 69.19 80.72 69.22 74.25 76.96 76.45 78.8 78.52 76.33 84.76 81.55 87.14 78.71 80.91 73.49 82.98 71.01 80.98 69.34 90.63 73.84 94.5 65.55"/>
  </g>
  <path class="cls-2" d="M73.06,40.44c-.63-7.31-5.3-12.33-14.35-14.18-2.53-.52-5.4-.79-8.62-.79-3.77,0-7.05,.36-9.87,1.05-7.95,1.92-12.24,6.44-13.16,12.89-.13,.9-.19,1.83-.19,2.8v15.57c0,.6,.03,1.19,.08,1.77,.63,7.34,5.26,12.32,14.33,14.16,2.58,.53,5.51,.8,8.82,.8,3.65,0,6.84-.34,9.6-1,7.98-1.88,12.32-6.38,13.26-12.9,.13-.91,.2-1.86,.2-2.84v-15.57c0-.6-.03-1.19-.08-1.77Zm-9.06,13.35c-2.23,1.5-8.85,1.27-8.92,1.27h0s.01,0,.01,0c0,0-.36,6.59-.22,8.78,.03,.35,.22,1.37,.22,1.37,0,0-6.98,1.6-8.88-1.22-1.5-2.21-1.28-8.77-1.27-8.93h-.02s0,0,0,0c0,0-6.59-.36-8.78-.21-.34,.03-1.37,.21-1.37,.21,0,0-1.59-6.97,1.21-8.88,2.22-1.49,8.82-1.27,8.93-1.27h0s.36-6.6,.22-8.78c-.02-.35-.22-1.37-.22-1.37,0,0,6.98-1.6,8.88,1.22,1.49,2.21,1.27,8.77,1.27,8.92,0,0,6.59,.36,8.78,.21,.34-.03,1.37-.21,1.37-.21,0,0,1.59,6.98-1.22,8.87Z"/>
  <polygon class="cls-1" points="49.67 3.51 51.39 1.42 54.2 1.42 51.63 3.51 49.67 3.51"/>
  <polygon class="cls-1" points="48.74 85.53 50.47 83.44 53.28 83.44 50.7 85.53 48.74 85.53"/>
</svg>