<?xml version="1.0" encoding="utf-8"?>
<!-- Generator: Adobe Illustrator 27.0.0, SVG Export Plug-In . SVG Version: 6.00 Build 0)  -->
<svg version="1.1" id="Capa_1" xmlns="http://www.w3.org/2000/svg" xmlns:xlink="http://www.w3.org/1999/xlink" x="0px" y="0px"
	 viewBox="0 0 495 100" style="enable-background:new 0 0 495 100;" xml:space="preserve">
<style type="text/css">
	.st0{fill:#1ECAD3;}
	.st1{fill:#FFFFFF;}
	.st2{fill-rule:evenodd;clip-rule:evenodd;fill:#FFFFFF;}
</style>
<g>
	<path class="st0" d="M445,100H50C22.38,100,0,77.62,0,50V50C0,22.38,22.38,0,50,0L445,0c27.61,0,50,22.38,50,50V50
		C495,77.62,472.62,100,445,100z"/>
	<g>
		<g>
			<polygon class="st1" points="123.39,42.56 133.69,42.56 133.69,34.4 150.29,34.4 132.33,75.04 144.92,75.04 163.52,32.47 
				163.52,24.96 123.39,24.96 			"/>
			<path class="st1" d="M200.07,45.56c-2.58-1.29-5.48-1.93-8.73-1.93c-2.39,0-4.57,0.32-6.54,0.97c-1.98,0.64-3.68,1.6-5.12,2.86
				c-0.24,0.21-0.43,0.48-0.65,0.71c0.16-4.65,1.37-8.24,3.73-10.69c2.53-2.62,5.96-3.93,10.3-3.93c1.71,0,3.36,0.18,4.93,0.54
				c1.57,0.36,3.05,1.01,4.44,1.97l4.29-8.51c-1.77-1.15-3.86-2-6.3-2.58s-4.98-0.86-7.65-0.86c-5.01,0-9.43,1.05-13.27,3.15
				c-3.84,2.1-6.84,5.15-9.01,9.16c-2.17,4.01-3.25,8.9-3.25,14.67c0,5.39,0.91,9.92,2.72,13.59c1.81,3.67,4.4,6.46,7.76,8.37
				c3.36,1.91,7.33,2.86,11.91,2.86c3.58,0,6.78-0.68,9.62-2.04c2.83-1.36,5.1-3.29,6.79-5.79c1.69-2.5,2.54-5.45,2.54-8.84
				c0-3.15-0.78-5.89-2.32-8.23C204.71,48.67,202.65,46.85,200.07,45.56z M196.28,63.74c-0.71,1.15-1.7,2.02-2.97,2.61
				c-1.26,0.6-2.71,0.89-4.33,0.89c-1.86,0-3.43-0.32-4.72-0.97c-1.29-0.64-2.29-1.53-3-2.65c-0.72-1.12-1.07-2.4-1.07-3.83
				c0-1.48,0.37-2.78,1.11-3.9c0.74-1.12,1.75-2,3.04-2.65c1.29-0.64,2.79-0.97,4.51-0.97c2.57,0,4.64,0.68,6.19,2.04
				c1.55,1.36,2.32,3.18,2.32,5.47C197.35,61.28,197,62.59,196.28,63.74z"/>
			<path class="st1" d="M240.2,54.72c2.34-2.19,4.11-4.17,5.33-5.94c1.22-1.76,2.03-3.44,2.43-5.04c0.41-1.6,0.61-3.21,0.61-4.83
				c0-3.05-0.77-5.68-2.32-7.87c-1.55-2.19-3.72-3.9-6.51-5.12c-2.79-1.22-6.05-1.82-9.76-1.82c-4.48,0-8.44,0.83-11.87,2.5
				c-3.44,1.67-6.11,3.93-8.01,6.8l8.44,5.44c1.24-1.72,2.76-2.98,4.54-3.79c1.79-0.81,3.73-1.22,5.83-1.22
				c2.62,0,4.61,0.54,5.98,1.61c1.36,1.07,2.04,2.61,2.04,4.62c0,0.76-0.13,1.6-0.39,2.5c-0.26,0.91-0.75,1.91-1.47,3.01
				c-0.72,1.1-1.84,2.34-3.36,3.72l-19.31,18.24v7.51h37.84V65.6h-21.56L240.2,54.72z"/>
			<path class="st1" d="M287.84,45.56c-2.58-1.29-5.48-1.93-8.73-1.93c-2.39,0-4.57,0.32-6.54,0.97c-1.98,0.64-3.68,1.6-5.12,2.86
				c-0.24,0.21-0.43,0.48-0.65,0.71c0.16-4.65,1.37-8.24,3.73-10.69c2.53-2.62,5.96-3.93,10.3-3.93c1.71,0,3.36,0.18,4.93,0.54
				c1.57,0.36,3.05,1.01,4.44,1.97l4.29-8.51c-1.77-1.15-3.86-2-6.3-2.58s-4.98-0.86-7.65-0.86c-5.01,0-9.43,1.05-13.27,3.15
				c-3.84,2.1-6.84,5.15-9.01,9.16c-2.17,4.01-3.25,8.9-3.25,14.67c0,5.39,0.91,9.92,2.72,13.59c1.81,3.67,4.4,6.46,7.76,8.37
				s7.33,2.86,11.91,2.86c3.58,0,6.78-0.68,9.62-2.04c2.83-1.36,5.1-3.29,6.79-5.79c1.69-2.5,2.54-5.45,2.54-8.84
				c0-3.15-0.78-5.89-2.32-8.23C292.48,48.67,290.42,46.85,287.84,45.56z M284.05,63.74c-0.71,1.15-1.7,2.02-2.97,2.61
				s-2.71,0.89-4.33,0.89c-1.86,0-3.43-0.32-4.72-0.97c-1.29-0.64-2.29-1.53-3-2.65c-0.72-1.12-1.07-2.4-1.07-3.83
				c0-1.48,0.37-2.78,1.11-3.9c0.74-1.12,1.75-2,3.04-2.65c1.29-0.64,2.79-0.97,4.51-0.97c2.57,0,4.64,0.68,6.19,2.04
				c1.55,1.36,2.32,3.18,2.32,5.47C285.12,61.28,284.77,62.59,284.05,63.74z"/>
			<path class="st1" d="M334.86,48.67c1.36-0.84,2.52-1.83,3.45-3c1.6-2.03,2.4-4.45,2.4-7.26c0-2.96-0.82-5.5-2.47-7.62
				c-1.64-2.12-3.91-3.77-6.79-4.94c-2.89-1.17-6.26-1.75-10.12-1.75c-3.77,0-7.11,0.59-10.01,1.75c-2.91,1.17-5.18,2.82-6.8,4.94
				c-1.62,2.12-2.43,4.66-2.43,7.62c0,2.82,0.8,5.23,2.4,7.26c0.92,1.17,2.08,2.16,3.43,3c-2.05,1.03-3.72,2.34-5.01,3.94
				c-1.74,2.17-2.61,4.81-2.61,7.91c0,3.1,0.88,5.81,2.65,8.12c1.76,2.31,4.22,4.1,7.37,5.37c3.15,1.26,6.82,1.9,11.02,1.9
				c4.24,0,7.95-0.63,11.12-1.9c3.17-1.26,5.64-3.05,7.4-5.37c1.76-2.31,2.65-5.02,2.65-8.12c0-3.1-0.87-5.74-2.61-7.91
				C338.6,51.01,336.92,49.7,334.86,48.67z M315.74,34.26c1.43-1.1,3.29-1.65,5.58-1.65c2.34,0,4.23,0.55,5.69,1.65
				c1.45,1.1,2.18,2.65,2.18,4.65c0,1.91-0.71,3.41-2.11,4.51s-3.32,1.65-5.76,1.65c-2.39,0-4.27-0.55-5.65-1.65
				s-2.07-2.6-2.07-4.51C313.59,36.91,314.31,35.36,315.74,34.26z M328.22,65.45c-1.69,1.29-3.99,1.93-6.9,1.93
				c-2.86,0-5.13-0.64-6.8-1.93c-1.67-1.29-2.5-3.05-2.5-5.29c0-2.24,0.83-3.99,2.5-5.26c1.67-1.26,3.93-1.9,6.8-1.9
				c2.91,0,5.21,0.63,6.9,1.9c1.69,1.26,2.54,3.02,2.54,5.26C330.76,62.4,329.91,64.17,328.22,65.45z"/>
			<path class="st1" d="M380.62,45.56c-2.58-1.29-5.48-1.93-8.73-1.93c-2.39,0-4.57,0.32-6.54,0.97c-1.98,0.64-3.68,1.6-5.12,2.86
				c-0.24,0.21-0.43,0.48-0.65,0.71c0.16-4.65,1.37-8.24,3.73-10.69c2.53-2.62,5.96-3.93,10.3-3.93c1.71,0,3.36,0.18,4.93,0.54
				c1.57,0.36,3.05,1.01,4.44,1.97l4.29-8.51c-1.77-1.15-3.86-2-6.3-2.58c-2.43-0.57-4.98-0.86-7.65-0.86
				c-5.01,0-9.43,1.05-13.27,3.15c-3.84,2.1-6.84,5.15-9.01,9.16c-2.17,4.01-3.25,8.9-3.25,14.67c0,5.39,0.91,9.92,2.72,13.59
				c1.81,3.67,4.4,6.46,7.76,8.37s7.33,2.86,11.91,2.86c3.58,0,6.78-0.68,9.62-2.04c2.83-1.36,5.1-3.29,6.79-5.79
				c1.69-2.5,2.54-5.45,2.54-8.84c0-3.15-0.78-5.89-2.32-8.23C385.26,48.67,383.19,46.85,380.62,45.56z M376.83,63.74
				c-0.71,1.15-1.7,2.02-2.97,2.61s-2.71,0.89-4.33,0.89c-1.86,0-3.43-0.32-4.72-0.97c-1.29-0.64-2.29-1.53-3-2.65
				c-0.72-1.12-1.07-2.4-1.07-3.83c0-1.48,0.37-2.78,1.11-3.9c0.74-1.12,1.75-2,3.04-2.65c1.29-0.64,2.79-0.97,4.51-0.97
				c2.57,0,4.64,0.68,6.19,2.04c1.55,1.36,2.32,3.18,2.32,5.47C377.9,61.28,377.54,62.59,376.83,63.74z"/>
			<polygon class="st1" points="391.06,34.26 401.08,34.26 401.08,75.04 412.67,75.04 412.67,24.96 391.06,24.96 			"/>
			<path class="st1" d="M460.7,52.61c-1.28-1.6-2.96-2.91-5.02-3.94c1.36-0.84,2.52-1.83,3.45-3c1.6-2.03,2.4-4.45,2.4-7.26
				c0-2.96-0.82-5.5-2.47-7.62c-1.64-2.12-3.91-3.77-6.79-4.94c-2.89-1.17-6.26-1.75-10.12-1.75c-3.77,0-7.11,0.59-10.01,1.75
				c-2.91,1.17-5.18,2.82-6.8,4.94c-1.62,2.12-2.43,4.66-2.43,7.62c0,2.82,0.8,5.23,2.4,7.26c0.92,1.17,2.08,2.16,3.43,3
				c-2.05,1.03-3.72,2.34-5.01,3.94c-1.74,2.17-2.61,4.81-2.61,7.91c0,3.1,0.88,5.81,2.65,8.12c1.76,2.31,4.22,4.1,7.37,5.37
				c3.15,1.26,6.82,1.9,11.02,1.9c4.24,0,7.95-0.63,11.12-1.9c3.17-1.26,5.64-3.05,7.4-5.37c1.76-2.31,2.65-5.02,2.65-8.12
				C463.31,57.42,462.44,54.78,460.7,52.61z M436.55,34.26c1.43-1.1,3.29-1.65,5.58-1.65c2.34,0,4.23,0.55,5.69,1.65
				c1.45,1.1,2.18,2.65,2.18,4.65c0,1.91-0.71,3.41-2.11,4.51s-3.32,1.65-5.76,1.65c-2.39,0-4.27-0.55-5.65-1.65
				s-2.07-2.6-2.07-4.51C434.41,36.91,435.13,35.36,436.55,34.26z M449.04,65.45c-1.69,1.29-3.99,1.93-6.9,1.93
				c-2.86,0-5.13-0.64-6.8-1.93c-1.67-1.29-2.5-3.05-2.5-5.29c0-2.24,0.83-3.99,2.5-5.26c1.67-1.26,3.93-1.9,6.8-1.9
				c2.91,0,5.21,0.63,6.9,1.9c1.69,1.26,2.54,3.02,2.54,5.26C451.58,62.4,450.73,64.17,449.04,65.45z"/>
		</g>
		<g>
			<path class="st1" d="M38.07,37.09c-0.68,0.46-1.26,0.73-1.68,1.16c-6.14,6.16-6.27,16.78-0.31,23.21
				c1.21,1.31,2.37,1.54,3.29,0.67c0.89-0.85,0.74-1.96-0.44-3.26c-4.33-4.79-4.54-12.16-0.48-17.17c0.38-0.47,0.96-0.86,1.14-1.39
				c0.21-0.6,0.29-1.42,0.04-1.97C39.4,37.82,38.67,37.54,38.07,37.09z"/>
			<path class="st1" d="M98.98,50c-0.13-4.54-1.63-8.54-4.83-11.85c-0.92-0.95-2.03-1.06-2.86-0.32c-0.85,0.76-0.81,1.93,0.09,2.96
				c4.98,5.65,4.99,12.78,0.03,18.38c-0.91,1.03-0.97,2.19-0.14,2.96c0.83,0.78,1.97,0.67,2.93-0.33
				C97.36,58.51,98.84,54.54,98.98,50z"/>
			<path class="st1" d="M42.62,42.27c-0.29,0.2-0.87,0.48-1.29,0.92c-3.43,3.57-3.55,9.55-0.31,13.3c1.18,1.36,2.19,1.61,3.19,0.77
				c0.99-0.83,0.91-1.82-0.25-3.25c-1.97-2.41-1.95-5.66,0.04-8.09c0.25-0.31,0.54-0.62,0.71-0.98
				C45.31,43.72,44.32,42.23,42.62,42.27z"/>
			<path class="st1" d="M91.92,50.01c0.05-2.7-0.9-5.01-2.75-6.96c-0.93-0.98-2-1.05-2.85-0.25c-0.83,0.78-0.82,1.76,0.01,2.79
				c2.41,2.98,2.41,5.82,0.01,8.78c-0.86,1.06-0.85,2.1,0.04,2.86c0.88,0.76,1.9,0.66,2.85-0.36
				C91.03,54.95,91.97,52.67,91.92,50.01z"/>
			<path class="st1" d="M81.96,50c0-7.62,0.01-15.25,0-22.87c0-4.27-2.7-6.96-6.93-6.97c-6.48,0-12.95,0-19.43,0
				c-4.24,0-6.92,2.7-6.93,6.97c-0.01,4.01,0,8.03,0,12.04c0,11.27-0.01,22.53,0,33.8c0,4.13,2.74,6.86,6.83,6.87
				c6.58,0,13.15,0,19.73,0c0.5,0,1.02-0.01,1.51-0.11c3.21-0.71,5.21-3.24,5.22-6.65C81.97,65.38,81.96,57.69,81.96,50z
				 M78.38,28.13c0,14.62,0,29.12,0,43.73c-8.71,0-17.39,0-26.13,0c0-14.59,0-29.11,0-43.73C60.96,28.13,69.61,28.13,78.38,28.13z"
				/>
		</g>
	</g>
</g>
</svg>
