<?xml version="1.0" encoding="utf-8"?>
<!-- Generator: Adobe Illustrator 27.0.0, SVG Export Plug-In . SVG Version: 6.00 Build 0)  -->
<svg version="1.1" id="Capa_1" xmlns="http://www.w3.org/2000/svg" xmlns:xlink="http://www.w3.org/1999/xlink" x="0px" y="0px"
	 viewBox="0 0 100 100" style="enable-background:new 0 0 100 100;" xml:space="preserve">
<style type="text/css">
	.st0{fill:#1ECAD3;}
	.st1{fill:#FFFFFF;}
	.st2{fill-rule:evenodd;clip-rule:evenodd;fill:#FFFFFF;}
</style>
<g>
	<g>
		<path class="st0" d="M49.89,100C22.25,100-0.01,77.61,0,49.8C0.01,22.21,22.44-0.01,50.28,0C77.83,0.01,100.02,22.49,100,50.36
			C99.98,77.74,77.5,100,49.89,100z M8.94,49.24C8.46,71.86,26.56,90.55,49.46,91.06c22.09,0.49,41.11-17.77,41.61-39.85
			c0.51-22.84-17.3-41.58-39.74-42.22C28.28,8.33,9.44,26.34,8.94,49.24z"/>
		<path class="st0" d="M44.77,49.39c-0.28-0.44-0.48-0.97-0.85-1.32c-3.04-2.92-6.11-5.81-9.18-8.7c-0.86-0.81-1.19-1.79-0.87-2.92
			c0.3-1.04,1.05-1.69,2.11-1.91c1.03-0.22,1.87,0.19,2.61,0.9c3.03,2.88,6.09,5.73,9.11,8.62c0.5,0.48,0.95,0.67,1.66,0.54
			c0.6-0.11,1.3-0.11,1.85,0.11c0.81,0.31,1.21-0.06,1.7-0.57c6.58-6.81,13.17-13.61,19.76-20.42c1.38-1.42,2.52-1.64,3.5-0.66
			c0.95,0.95,0.76,2.06-0.58,3.45c-6.46,6.67-12.92,13.34-19.4,19.99c-0.74,0.76-1.13,1.38-0.84,2.57c0.53,2.22-0.33,4.1-2.19,5.41
			c-1.86,1.31-3.88,1.4-5.86,0.28C45.29,53.62,44.47,51.8,44.77,49.39z"/>
		<path class="st0" d="M51.86,15.46c0,1.11,0.04,2.21-0.01,3.32c-0.05,1.19-0.78,1.92-1.85,1.92c-1.06,0-1.84-0.72-1.86-1.91
			c-0.04-2.29-0.04-4.57,0-6.86c0.02-1.16,0.81-1.93,1.84-1.93c1.03-0.01,1.78,0.76,1.87,1.92c0.01,0.07,0.01,0.15,0.01,0.22
			C51.87,13.25,51.87,14.36,51.86,15.46C51.87,15.46,51.87,15.46,51.86,15.46z"/>
		<path class="st0" d="M15.39,51.87c-1.14,0-2.29,0.03-3.43-0.01c-1.17-0.04-1.93-0.78-1.95-1.82c-0.02-1.03,0.74-1.86,1.89-1.88
			c2.32-0.05,4.64-0.04,6.97,0c1.1,0.02,1.82,0.8,1.84,1.81c0.02,1.05-0.72,1.84-1.88,1.89C17.68,51.9,16.54,51.86,15.39,51.87
			C15.39,51.86,15.39,51.87,15.39,51.87z"/>
		<path class="st0" d="M84.61,48.13c1.11,0,2.21-0.02,3.32,0.01c1.26,0.03,2.04,0.75,2.05,1.84c0.01,1.09-0.77,1.88-2,1.89
			c-2.25,0.03-4.5,0.03-6.74-0.01c-1.18-0.02-1.93-0.78-1.94-1.83c-0.02-1.09,0.76-1.85,2-1.89C82.4,48.1,83.51,48.13,84.61,48.13z"
			/>
		<path class="st0" d="M51.87,84.6c0,1.11,0.02,2.21-0.01,3.32c-0.03,1.26-0.75,2.04-1.83,2.06c-1.08,0.02-1.87-0.75-1.89-1.99
			c-0.03-2.25-0.04-4.5,0-6.75c0.02-1.2,0.76-1.93,1.82-1.95c1.1-0.02,1.83,0.73,1.9,1.99c0,0.07,0,0.15,0,0.22
			C51.87,82.54,51.87,83.57,51.87,84.6z"/>
	</g>
</g>
</svg>
