<?xml version="1.0" encoding="utf-8"?>
<!-- Generator: Adobe Illustrator 27.0.0, SVG Export Plug-In . SVG Version: 6.00 Build 0)  -->
<svg version="1.1" id="Capa_1" xmlns="http://www.w3.org/2000/svg" xmlns:xlink="http://www.w3.org/1999/xlink" x="0px" y="0px"
	 viewBox="0 0 495 100" style="enable-background:new 0 0 495 100;" xml:space="preserve">
<style type="text/css">
	.st0{fill:#1ECAD3;}
	.st1{fill:#FFFFFF;}
	.st2{fill-rule:evenodd;clip-rule:evenodd;fill:#FFFFFF;}
</style>
<g>
	<path class="st0" d="M445.05,99.99H50.03C22.42,99.99,0.04,77.61,0.04,50v0c0-27.61,22.38-49.99,49.99-49.99h395.02
		c27.61,0,49.99,22.38,49.99,49.99v0C495.04,77.61,472.66,99.99,445.05,99.99z"/>
	<g>
		<g>
			<g>
				<path class="st1" d="M45.23,37.09c-0.68,0.46-1.26,0.73-1.68,1.16c-6.14,6.16-6.27,16.78-0.31,23.2
					c1.21,1.31,2.37,1.54,3.29,0.67c0.89-0.84,0.74-1.95-0.44-3.26c-4.33-4.79-4.54-12.16-0.48-17.17c0.38-0.47,0.96-0.86,1.14-1.39
					c0.21-0.6,0.29-1.42,0.04-1.97C46.56,37.82,45.83,37.54,45.23,37.09z"/>
				<path class="st1" d="M106.14,50c-0.13-4.54-1.63-8.54-4.83-11.85c-0.92-0.95-2.03-1.06-2.86-0.31
					c-0.85,0.76-0.81,1.93,0.09,2.95c4.98,5.65,4.99,12.78,0.03,18.37c-0.91,1.03-0.97,2.19-0.14,2.96
					c0.83,0.78,1.97,0.67,2.93-0.33C104.52,58.51,106,54.54,106.14,50z"/>
				<path class="st1" d="M49.78,42.27c-0.29,0.2-0.87,0.48-1.29,0.92c-3.43,3.57-3.55,9.54-0.31,13.3c1.18,1.36,2.19,1.61,3.19,0.77
					c0.99-0.83,0.91-1.82-0.25-3.25c-1.97-2.41-1.95-5.66,0.04-8.08c0.25-0.31,0.54-0.62,0.71-0.98
					C52.46,43.72,51.47,42.23,49.78,42.27z"/>
				<path class="st1" d="M99.08,50.01c0.05-2.7-0.9-5.01-2.75-6.96c-0.93-0.98-2-1.05-2.85-0.25c-0.83,0.78-0.82,1.76,0.01,2.79
					c2.41,2.98,2.41,5.82,0.01,8.78c-0.86,1.06-0.85,2.1,0.04,2.86c0.88,0.76,1.9,0.66,2.85-0.36
					C98.19,54.95,99.12,52.67,99.08,50.01z"/>
				<path class="st1" d="M89.12,50c0-7.62,0.01-15.25,0-22.87c0-4.27-2.7-6.96-6.93-6.96c-6.48,0-12.95,0-19.43,0
					c-4.24,0-6.92,2.7-6.93,6.97c-0.01,4.01,0,8.03,0,12.04c0,11.27-0.01,22.53,0,33.8c0,4.13,2.74,6.86,6.83,6.86
					c6.58,0,13.15,0,19.73,0c0.5,0,1.02-0.01,1.51-0.11c3.21-0.71,5.21-3.24,5.22-6.65C89.12,65.38,89.11,57.69,89.12,50z
					 M85.54,28.13c0,14.62,0,29.11,0,43.72c-8.71,0-17.39,0-26.13,0c0-14.58,0-29.11,0-43.72C68.12,28.13,76.77,28.13,85.54,28.13z"
					/>
			</g>
		</g>
		<g>
			<g>
				<polygon class="st1" points="130.55,42.56 140.85,42.56 140.85,34.41 157.45,34.41 139.49,75.04 152.08,75.04 170.68,32.48 
					170.68,24.96 130.55,24.96 				"/>
				<polygon class="st1" points="174.9,42.56 185.2,42.56 185.2,34.41 201.8,34.41 183.84,75.04 196.43,75.04 215.03,32.48 
					215.03,24.96 174.9,24.96 				"/>
				<polygon class="st1" points="219.25,42.56 229.55,42.56 229.55,34.41 246.15,34.41 228.19,75.04 240.78,75.04 259.38,32.48 
					259.38,24.96 219.25,24.96 				"/>
				<path class="st1" d="M297.6,48.67c1.36-0.84,2.52-1.83,3.45-3c1.6-2.03,2.4-4.45,2.4-7.26c0-2.96-0.82-5.5-2.47-7.62
					c-1.64-2.12-3.91-3.77-6.79-4.93c-2.89-1.17-6.26-1.75-10.12-1.75c-3.77,0-7.11,0.59-10.01,1.75c-2.91,1.17-5.18,2.81-6.8,4.93
					c-1.62,2.12-2.43,4.66-2.43,7.62c0,2.81,0.8,5.23,2.4,7.26c0.92,1.17,2.08,2.16,3.43,3c-2.05,1.03-3.72,2.34-5.01,3.94
					c-1.74,2.17-2.61,4.8-2.61,7.9c0,3.1,0.88,5.81,2.65,8.12c1.76,2.31,4.22,4.1,7.37,5.36c3.15,1.26,6.82,1.9,11.02,1.9
					c4.24,0,7.95-0.63,11.12-1.9c3.17-1.26,5.64-3.05,7.4-5.36c1.76-2.31,2.65-5.02,2.65-8.12c0-3.1-0.87-5.73-2.61-7.9
					C301.34,51.01,299.66,49.7,297.6,48.67z M278.48,34.26c1.43-1.1,3.29-1.65,5.58-1.65c2.34,0,4.23,0.55,5.69,1.65
					c1.45,1.1,2.18,2.65,2.18,4.65c0,1.91-0.71,3.41-2.11,4.51s-3.32,1.65-5.76,1.65c-2.39,0-4.27-0.55-5.65-1.65
					s-2.07-2.6-2.07-4.51C276.33,36.91,277.05,35.36,278.48,34.26z M290.96,65.45c-1.69,1.29-3.99,1.93-6.9,1.93
					c-2.86,0-5.13-0.64-6.8-1.93c-1.67-1.29-2.5-3.05-2.5-5.29c0-2.24,0.83-3.99,2.5-5.26c1.67-1.26,3.93-1.9,6.8-1.9
					c2.91,0,5.21,0.63,6.9,1.9c1.69,1.26,2.54,3.02,2.54,5.26C293.5,62.4,292.65,64.16,290.96,65.45z"/>
				<path class="st1" d="M339.67,45.82c-3.03-1.36-7.02-2.04-11.98-2.04h-4.11l0.85-9.51h20.86v-9.3h-30.54l-2.57,28.18h12.8
					c3.05,0,5.43,0.26,7.12,0.79c1.69,0.53,2.87,1.29,3.54,2.29c0.67,1,1,2.15,1,3.43c0,2.05-0.84,3.65-2.51,4.79
					c-1.67,1.15-3.96,1.72-6.87,1.72c-2.58,0-5.12-0.4-7.62-1.22c-2.5-0.81-4.71-1.91-6.62-3.29l-4.58,8.87
					c2.43,1.72,5.35,3.04,8.76,3.97c3.41,0.93,6.85,1.4,10.34,1.4c4.77,0,8.69-0.78,11.77-2.33c3.08-1.55,5.35-3.58,6.83-6.08
					c1.48-2.5,2.22-5.23,2.22-8.19c0-2.96-0.69-5.6-2.07-7.94C344.9,49.02,342.7,47.17,339.67,45.82z"/>
				<path class="st1" d="M376.13,45.34l11.29-12.86v-7.51h-35.05v9.3h21.31l-10.29,11.66v7.65h5.29c3.29,0,5.67,0.55,7.15,1.65
					c1.48,1.1,2.22,2.6,2.22,4.51c0,2-0.84,3.58-2.5,4.72c-1.67,1.15-3.96,1.72-6.87,1.72c-2.58,0-5.13-0.4-7.65-1.22
					c-2.53-0.81-4.75-1.91-6.65-3.29l-4.51,8.87c2.38,1.72,5.29,3.04,8.73,3.97c3.43,0.93,6.89,1.4,10.37,1.4
					c4.77,0,8.68-0.76,11.73-2.29c3.05-1.53,5.31-3.52,6.79-5.97c1.48-2.46,2.22-5.09,2.22-7.9c0-4.34-1.58-7.89-4.72-10.66
					C382.78,47.13,379.8,45.92,376.13,45.34z"/>
				<path class="st1" d="M422.11,54.72c2.34-2.19,4.11-4.17,5.33-5.94c1.22-1.76,2.03-3.44,2.43-5.04c0.41-1.6,0.61-3.21,0.61-4.83
					c0-3.05-0.77-5.67-2.32-7.87c-1.55-2.19-3.72-3.9-6.51-5.11c-2.79-1.22-6.05-1.82-9.76-1.82c-4.48,0-8.44,0.83-11.87,2.5
					c-3.44,1.67-6.11,3.93-8.01,6.8l8.44,5.44c1.24-1.72,2.76-2.98,4.54-3.79c1.79-0.81,3.73-1.22,5.83-1.22
					c2.62,0,4.61,0.54,5.98,1.61c1.36,1.07,2.04,2.61,2.04,4.61c0,0.76-0.13,1.6-0.39,2.5c-0.26,0.91-0.75,1.91-1.47,3
					c-0.72,1.1-1.84,2.34-3.36,3.72l-19.31,18.24v7.51h37.84v-9.44h-21.56L422.11,54.72z"/>
				<polygon class="st1" points="434.63,24.96 434.63,34.26 444.65,34.26 444.65,75.04 456.23,75.04 456.23,24.96 				"/>
			</g>
		</g>
	</g>
</g>
</svg>
