<?xml version="1.0" encoding="utf-8"?>
<!-- Generator: Adobe Illustrator 27.0.0, SVG Export Plug-In . SVG Version: 6.00 Build 0)  -->
<svg version="1.1" id="Capa_1" xmlns="http://www.w3.org/2000/svg" xmlns:xlink="http://www.w3.org/1999/xlink" x="0px" y="0px"
	 viewBox="0 0 100 100" style="enable-background:new 0 0 100 100;" xml:space="preserve">
<style type="text/css">
	.st0{fill:#1ECAD3;}
	.st1{fill:#FFFFFF;}
	.st2{fill-rule:evenodd;clip-rule:evenodd;fill:#FFFFFF;}
</style>
<g>
	<ellipse transform="matrix(0.7074 -0.7068 0.7068 0.7074 -20.7107 49.9697)" class="st0" cx="50" cy="50" rx="50.03" ry="49.96"/>
	<g id="XMLID_00000007392429330099683770000015115958765257055411_">
		<path id="XMLID_00000155107879483043238710000010701006963131485866_" class="st2" d="M78.53,62.28
			c-1.58-0.77-9.25-4.53-10.68-5.04c-1.43-0.54-2.48-0.78-3.52,0.78c-1.04,1.55-4.06,5.04-4.95,6.05c-0.92,1.04-1.82,1.16-3.4,0.39
			c-1.55-0.78-6.59-2.39-12.56-7.69c-4.62-4.09-7.78-9.15-8.68-10.7c-0.89-1.55-0.09-2.39,0.69-3.16c0.71-0.71,1.55-1.82,2.35-2.71
			c0.21-0.27,0.39-0.51,0.57-0.75c0.36-0.57,0.63-1.1,0.98-1.85c0.54-1.04,0.27-1.94-0.12-2.71c-0.39-0.78-3.52-8.41-4.83-11.51
			c-1.28-3.1-2.59-2.56-3.52-2.56c-0.9,0-1.94-0.15-2.98-0.15c-1.04,0-2.74,0.39-4.18,1.94c-1.43,1.55-5.46,5.31-5.46,12.94
			c0,1.79,0.33,3.58,0.8,5.28c1.58,5.46,4.98,9.96,5.58,10.74c0.77,1.01,10.8,17.18,26.66,23.41c15.89,6.17,15.89,4.11,18.76,3.85
			c2.86-0.24,9.25-3.73,10.53-7.37c1.31-3.61,1.31-6.71,0.93-7.37C81.12,63.45,80.08,63.06,78.53,62.28z"/>
	</g>
</g>
</svg>
